<?xml version="1.0" encoding="UTF-8"?>
<svg xmlns="http://www.w3.org/2000/svg" xmlns:xlink="http://www.w3.org/1999/xlink" width="17px" height="17px" viewBox="0 0 17 17" version="1.1">
<g id="surface1">
<path style=" stroke:none;fill-rule:nonzero;fill:rgb(94.117647%,94.117647%,94.117647%);fill-opacity:1;" d="M 17 8.5 C 17 13.195312 13.195312 17 8.5 17 C 3.804688 17 0 13.195312 0 8.5 C 0 3.804688 3.804688 0 8.5 0 C 13.195312 0 17 3.804688 17 8.5 Z M 17 8.5 "/>
<path style=" stroke:none;fill-rule:nonzero;fill:rgb(84.705882%,0%,15.294118%);fill-opacity:1;" d="M 17 8.5 C 17 4.84375 14.691406 1.730469 11.457031 0.527344 L 11.457031 16.472656 C 14.691406 15.269531 17 12.15625 17 8.5 Z M 17 8.5 "/>
<path style=" stroke:none;fill-rule:nonzero;fill:rgb(0%,32.156863%,70.588235%);fill-opacity:1;" d="M 0 8.5 C 0 12.15625 2.308594 15.269531 5.542969 16.472656 L 5.542969 0.527344 C 2.308594 1.730469 0 4.84375 0 8.5 Z M 0 8.5 "/>
</g>
</svg>
